<?xml version="1.0" encoding="utf-8"?>
<!-- Generator: Adobe Illustrator 24.1.2, SVG Export Plug-In . SVG Version: 6.00 Build 0)  -->
<svg version="1.1" id="Capa_1" xmlns="http://www.w3.org/2000/svg" xmlns:xlink="http://www.w3.org/1999/xlink" x="0px" y="0px"
	 viewBox="0 0 595.28 841.89" style="enable-background:new 0 0 595.28 841.89;" xml:space="preserve">
<g>
	<path d="M289.24,412.52v8.4h-1.94v-3.44h-3.82v3.44h-1.94v-8.4h1.94v3.31h3.82v-3.31H289.24z"/>
	<path d="M296.76,419.12h-3.9l-0.74,1.8h-1.99l3.74-8.4h1.92l3.76,8.4h-2.04L296.76,419.12z M296.15,417.65l-1.33-3.22l-1.33,3.22
		H296.15z"/>
	<path d="M306,412.89c0.55,0.25,0.97,0.6,1.27,1.06s0.44,1,0.44,1.62c0,0.62-0.15,1.15-0.44,1.61s-0.72,0.81-1.27,1.06
		c-0.55,0.24-1.19,0.37-1.94,0.37h-1.69v2.32h-1.94v-8.4h3.64C304.8,412.52,305.45,412.65,306,412.89z M305.28,416.64
		c0.3-0.25,0.46-0.61,0.46-1.07c0-0.47-0.15-0.83-0.46-1.09c-0.3-0.25-0.75-0.38-1.33-0.38h-1.58v2.92h1.58
		C304.53,417.02,304.98,416.9,305.28,416.64z"/>
	<path d="M314.66,412.89c0.55,0.25,0.97,0.6,1.27,1.06s0.44,1,0.44,1.62c0,0.62-0.15,1.15-0.44,1.61s-0.72,0.81-1.27,1.06
		c-0.55,0.24-1.19,0.37-1.94,0.37h-1.69v2.32h-1.94v-8.4h3.64C313.47,412.52,314.11,412.65,314.66,412.89z M313.95,416.64
		c0.3-0.25,0.46-0.61,0.46-1.07c0-0.47-0.15-0.83-0.46-1.09c-0.3-0.25-0.75-0.38-1.33-0.38h-1.58v2.92h1.58
		C313.2,417.02,313.64,416.9,313.95,416.64z"/>
	<path d="M321.78,417.95v2.98h-1.94v-3l-3.25-5.4h2.06l2.24,3.73l2.24-3.73h1.91L321.78,417.95z"/>
	<path d="M336.9,420.92l-0.01-5.04l-2.47,4.15h-0.88l-2.46-4.04v4.93h-1.82v-8.4h1.61l3.14,5.22l3.1-5.22h1.6l0.02,8.4H336.9z"/>
	<path d="M342.43,420.5c-0.7-0.38-1.25-0.89-1.64-1.55c-0.4-0.66-0.59-1.4-0.59-2.23c0-0.82,0.2-1.57,0.59-2.23
		c0.4-0.66,0.94-1.18,1.64-1.55s1.49-0.56,2.36-0.56c0.87,0,1.66,0.19,2.35,0.56s1.24,0.89,1.64,1.55c0.4,0.66,0.6,1.4,0.6,2.23
		c0,0.82-0.2,1.57-0.6,2.23c-0.4,0.66-0.95,1.18-1.64,1.55s-1.48,0.56-2.35,0.56C343.91,421.07,343.13,420.88,342.43,420.5z
		 M346.13,419.07c0.4-0.23,0.71-0.55,0.94-0.95c0.23-0.41,0.34-0.87,0.34-1.39c0-0.52-0.11-0.98-0.34-1.39
		c-0.23-0.41-0.54-0.73-0.94-0.95c-0.4-0.23-0.85-0.34-1.34-0.34c-0.5,0-0.94,0.11-1.34,0.34c-0.4,0.23-0.71,0.55-0.94,0.95
		c-0.23,0.41-0.34,0.87-0.34,1.39c0,0.52,0.11,0.98,0.34,1.39c0.23,0.41,0.54,0.73,0.94,0.95c0.4,0.23,0.85,0.34,1.34,0.34
		C345.28,419.41,345.73,419.3,346.13,419.07z"/>
	<path d="M358.49,420.92l-0.01-5.04l-2.47,4.15h-0.88l-2.46-4.04v4.93h-1.82v-8.4h1.61l3.14,5.22l3.1-5.22h1.6l0.02,8.4H358.49z"/>
	<path d="M368.81,419.36v1.56h-6.5v-8.4h6.35v1.56h-4.42v1.82h3.9v1.51h-3.9v1.94H368.81z"/>
	<path d="M378.06,412.52v8.4h-1.6l-4.19-5.1v5.1h-1.92v-8.4h1.61l4.18,5.1v-5.1H378.06z"/>
	<path d="M381.79,414.11h-2.69v-1.58h7.32v1.58h-2.69v6.82h-1.94V414.11z"/>
	<path d="M388.24,420.8c-0.62-0.18-1.12-0.41-1.49-0.7l0.66-1.46c0.36,0.26,0.79,0.48,1.28,0.64c0.5,0.16,0.99,0.24,1.49,0.24
		c0.55,0,0.96-0.08,1.22-0.25c0.26-0.16,0.4-0.38,0.4-0.65c0-0.2-0.08-0.37-0.23-0.5c-0.16-0.13-0.36-0.24-0.6-0.32
		s-0.57-0.17-0.99-0.26c-0.64-0.15-1.16-0.3-1.57-0.46c-0.41-0.15-0.76-0.4-1.05-0.73c-0.29-0.34-0.44-0.78-0.44-1.34
		c0-0.49,0.13-0.93,0.4-1.33c0.26-0.4,0.66-0.71,1.19-0.94s1.18-0.35,1.95-0.35c0.54,0,1.06,0.06,1.57,0.19
		c0.51,0.13,0.96,0.31,1.34,0.55l-0.6,1.48c-0.78-0.44-1.55-0.66-2.33-0.66c-0.54,0-0.95,0.09-1.21,0.26
		c-0.26,0.18-0.39,0.41-0.39,0.7s0.15,0.5,0.45,0.64s0.76,0.28,1.37,0.41c0.64,0.15,1.16,0.3,1.57,0.46
		c0.41,0.15,0.76,0.39,1.05,0.72s0.44,0.77,0.44,1.33c0,0.48-0.13,0.92-0.4,1.31c-0.27,0.4-0.67,0.71-1.21,0.94
		s-1.19,0.35-1.96,0.35C389.51,421.07,388.86,420.98,388.24,420.8z"/>
</g>
</svg>
